<?xml version="1.0" encoding="UTF-8"?>
<svg xmlns="http://www.w3.org/2000/svg" width="1600" height="900" viewBox="0 0 1600 900">
  <defs>
    <linearGradient id="g" x1="0" y1="0" x2="0" y2="1">
      <stop offset="0" stop-color="#05070c"/>
      <stop offset="1" stop-color="#070b14"/>
    </linearGradient>
    <radialGradient id="glow" cx="50%" cy="40%" r="65%">
      <stop offset="0" stop-color="#0e1a2d" stop-opacity="0.55"/>
      <stop offset="1" stop-color="#05070c" stop-opacity="0"/>
    </radialGradient>
    <radialGradient id="glow2" cx="25%" cy="20%" r="55%">
      <stop offset="0" stop-color="#ff7a18" stop-opacity="0.12"/>
      <stop offset="1" stop-color="#ff7a18" stop-opacity="0"/>
    </radialGradient>
    <filter id="blur" x="-20%" y="-20%" width="140%" height="140%">
      <feGaussianBlur stdDeviation="18"/>
    </filter>
  </defs>

  <!-- Base -->
  <rect width="1600" height="900" fill="url(#g)"/>
  <rect width="1600" height="900" fill="url(#glow)"/>
  <rect width="1600" height="900" fill="url(#glow2)"/>

  <!-- Subtle horizon shapes -->
  <g opacity="0.20" filter="url(#blur)">
    <path d="M0 720 C 220 640, 520 660, 760 710 C 980 755, 1220 770, 1600 690 L 1600 900 L 0 900 Z" fill="#0a1220"/>
    <path d="M0 780 C 260 730, 560 740, 820 790 C 1060 835, 1340 840, 1600 770 L 1600 900 L 0 900 Z" fill="#070d18"/>
  </g>

  <!-- Stars / noise dots -->
  <g fill="#ffffff" opacity="0.14">
    <circle cx="120" cy="110" r="1.2"/>
    <circle cx="260" cy="180" r="1.0"/>
    <circle cx="420" cy="90" r="1.1"/>
    <circle cx="560" cy="160" r="0.9"/>
    <circle cx="720" cy="120" r="1.0"/>
    <circle cx="860" cy="200" r="1.2"/>
    <circle cx="980" cy="110" r="0.8"/>
    <circle cx="1120" cy="160" r="1.1"/>
    <circle cx="1280" cy="90" r="0.9"/>
    <circle cx="1440" cy="180" r="1.0"/>

    <circle cx="80" cy="260" r="0.8"/>
    <circle cx="210" cy="310" r="1.1"/>
    <circle cx="360" cy="260" r="0.9"/>
    <circle cx="520" cy="330" r="1.0"/>
    <circle cx="680" cy="280" r="0.8"/>
    <circle cx="840" cy="320" r="1.1"/>
    <circle cx="1000" cy="270" r="0.9"/>
    <circle cx="1160" cy="330" r="1.0"/>
    <circle cx="1320" cy="260" r="0.8"/>
    <circle cx="1520" cy="320" r="1.1"/>

    <circle cx="140" cy="420" r="0.9"/>
    <circle cx="300" cy="470" r="1.0"/>
    <circle cx="460" cy="420" r="0.8"/>
    <circle cx="620" cy="490" r="1.1"/>
    <circle cx="780" cy="440" r="0.9"/>
    <circle cx="940" cy="470" r="1.0"/>
    <circle cx="1100" cy="420" r="0.8"/>
    <circle cx="1260" cy="490" r="1.1"/>
    <circle cx="1420" cy="440" r="0.9"/>
  </g>
</svg>
